<svg xmlns="http://www.w3.org/2000/svg" xmlns:xlink="http://www.w3.org/1999/xlink" width="800" height="800" viewBox="0 0 800 800">
  <defs>
    <clipPath id="clip-favicon">
      <rect width="800" height="800"/>
    </clipPath>
  </defs>
  <g id="favicon" clip-path="url(#clip-favicon)">
    <path id="Path_9644" data-name="Path 9644" d="M932,768.551V875.8a25.006,25.006,0,0,1-25,25H207a25,25,0,0,1-25-25V768.552a100.007,100.007,0,0,1,62.5-92.757l187.5-75V453.171A74.985,74.985,0,0,1,394.5,388.3v-125a162.5,162.5,0,0,1,325,0v125A74.984,74.984,0,0,1,682,453.171V600.8l187.5,75v-.009a100.007,100.007,0,0,1,62.5,92.757Z" transform="translate(-157.002 -100.798)" fill="#244c98"/>
  </g>
</svg>
