<?xml version="1.0" standalone="no"?>
<!DOCTYPE svg PUBLIC "-//W3C//DTD SVG 20010904//EN"
 "http://www.w3.org/TR/2001/REC-SVG-20010904/DTD/svg10.dtd">
<svg version="1.0" xmlns="http://www.w3.org/2000/svg"
 width="700.000000pt" height="700.000000pt" viewBox="0 0 700.000000 700.000000"
 preserveAspectRatio="xMidYMid meet">
<metadata>
Created by potrace 1.14, written by Peter Selinger 2001-2017
</metadata>
<g transform="translate(0.000000,700.000000) scale(0.100000,-0.100000)"
fill="#000000" stroke="none">
<path d="M3295 6985 c-304 -47 -597 -195 -798 -402 -95 -98 -111 -118 -182
-223 -143 -213 -227 -471 -235 -720 -5 -174 -2 -1180 4 -1235 21 -183 119
-344 281 -460 l41 -30 0 -644 c-1 -561 -3 -645 -16 -652 -8 -5 -96 -41 -195
-79 -99 -39 -195 -78 -214 -87 -18 -8 -39 -16 -45 -18 -6 -1 -23 -7 -37 -13
-58 -23 -347 -140 -729 -292 -483 -193 -477 -191 -562 -246 -206 -137 -345
-361 -383 -619 -3 -22 -6 -273 -6 -557 0 -391 3 -528 13 -560 16 -54 82 -120
136 -136 30 -9 772 -12 3138 -12 l3099 0 50 24 c54 25 101 77 116 129 11 36
13 1028 3 1110 -33 272 -199 520 -436 655 -29 17 -172 78 -318 136 -146 59
-274 110 -285 115 -11 5 -74 30 -140 56 -66 26 -134 53 -152 61 -17 8 -34 14
-37 14 -3 0 -25 9 -49 19 -23 10 -96 40 -162 66 -66 25 -129 50 -140 55 -64
29 -423 173 -441 177 -20 5 -20 6 -20 651 l0 647 39 26 c95 64 184 171 230
275 58 132 59 143 59 814 0 338 -3 642 -6 675 -34 352 -185 662 -446 911 -178
169 -439 306 -671 353 -30 6 -67 13 -84 16 -62 13 -342 12 -420 0z"/>
</g>
</svg>
